HIERARCHY
ROOT Hips
{
   OFFSET 0.00000 0.00000 0.00000
   CHANNELS 6 Xposition Yposition Zposition Zrotation Xrotation Yrotation
   JOINT RightUpLeg
   {
      OFFSET -9.840380 -9.533777 0.111817
      CHANNELS 3 Zrotation Xrotation Yrotation
      JOINT RightLeg
      {
         OFFSET 0.000000 -48.864969 1.509970
         CHANNELS 3 Zrotation Xrotation Yrotation
         JOINT RightFoot
         {
            OFFSET 0.278904 -46.301641 -1.606649
            CHANNELS 3 Zrotation Xrotation Yrotation
            JOINT RightToes
            {
               OFFSET 0.044000 -4.856599 9.349010
               CHANNELS 3 Zrotation Xrotation Yrotation
               End Site
               {
                  OFFSET -0.088000 -0.151193 10.757769
               }
            }
         }
      }
   }
   JOINT Spine
   {
      OFFSET 0.000000 13.079551 0.000000
      CHANNELS 3 Zrotation Xrotation Yrotation
      JOINT Spine1
      {
         OFFSET 0.000000 28.223142 0.140429
         CHANNELS 3 Zrotation Xrotation Yrotation
         JOINT HEad
         {
            OFFSET 0.000000 9.607577 0.012475
            CHANNELS 3 Zrotation Xrotation Yrotation
            End Site
            {
               OFFSET -0.319000 14.051621 2.765345
            }
         }
         JOINT LeftShoulder1
         {
            OFFSET 9.889000 -0.398477 -0.242000
            CHANNELS 3 Zrotation Xrotation Yrotation
            JOINT LeftArm
            {
               OFFSET 11.310971 -0.003718 0.354335
               CHANNELS 3 Zrotation Xrotation Yrotation
               JOINT LeftForeArm
               {
                  OFFSET 36.043591 0.109058 -1.566774
                  CHANNELS 3 Zrotation Xrotation Yrotation
                  JOINT LeftHand
                  {
                     OFFSET 30.320732 0.093898 1.124376
                     CHANNELS 3 Zrotation Xrotation Yrotation
                     End Site
                     {
                        OFFSET 18.418731 -0.660000 1.653201
                     }
                  }
               }
            }
         }
         JOINT RightShoulder
         {
            OFFSET -9.889000 -0.398477 -0.242000
            CHANNELS 3 Zrotation Xrotation Yrotation
            JOINT RightArm
            {
               OFFSET -11.310971 -0.003718 0.354335
               CHANNELS 3 Zrotation Xrotation Yrotation
               JOINT RightForeArm
               {
                  OFFSET -36.186809 0.109058 -1.566774
                  CHANNELS 3 Zrotation Xrotation Yrotation
                  JOINT RightHand
                  {
                     OFFSET -30.241313 0.093898 1.124376
                     CHANNELS 3 Zrotation Xrotation Yrotation
                     End Site
                     {
                        OFFSET -18.294322 -0.660000 1.653201
                     }
                  }
               }
            }
         }
      }
   }
   JOINT LeftUpLeg
   {
      OFFSET 9.840380 -9.533777 0.111817
      CHANNELS 3 Zrotation Xrotation Yrotation
      JOINT LeftLeg
      {
         OFFSET 0.000000 -48.864969 1.509970
         CHANNELS 3 Zrotation Xrotation Yrotation
         JOINT LeftFoot
         {
            OFFSET -0.278904 -46.301641 -1.606649
            CHANNELS 3 Zrotation Xrotation Yrotation
            JOINT LeftToes
            {
               OFFSET -0.044000 -4.856599 9.349010
               CHANNELS 3 Zrotation Xrotation Yrotation
               End Site
               {
                  OFFSET 0.088000 -0.052193 10.757769
               }
            }
         }
      }
   }
}
MOTION
Frames: 7
Frame Time: 0.016667
-325.585856 100.369538 -16.419337 -23.585847 36.044756 -132.787729 -10.065419 33.662635 51.591137 26.785623 19.119585 -13.314796 -61.543406 28.447518 16.120911 6.571775 -12.795327 -43.174671 18.764229 35.905157 138.417882 39.905349 -33.914843 -135.267457 -23.771698 13.012969 17.461618 39.550241 80.674090 -37.902683 249.261607 91.082581 -219.984274 -32.761866 116.638430 -26.747869 -60.642859 -40.560447 -76.909392 86.828930 -35.872317 53.927410 39.768496 187.309755 313.730560 31.515849 237.709844 106.557925 -26.616228 -31.403431 40.109347 40.104313 21.160505 -50.245406 -25.222009 0.048403 57.250987 -14.136528 -11.127134 8.815169 -9.746113 -10.117203 35.851246
-326.917720 101.119908 -15.781621 -23.742651 35.435547 -132.630321 -10.299760 33.361017 51.768258 26.376674 18.978341 -13.282076 -61.536726 28.551601 16.129159 6.532247 -12.884579 -43.189745 17.417693 35.175454 139.140488 39.195461 -33.206061 -135.111633 -24.560757 12.326948 17.397212 38.578701 80.226842 -37.963892 249.048696 91.323502 -218.890228 -33.788587 116.231364 -26.485315 -59.878732 -41.143232 -76.654639 85.743408 -34.993228 53.006380 39.451098 185.571254 312.903643 31.708620 238.016766 108.518367 -26.590806 -31.302463 42.361274 39.788400 21.634416 -48.229697 -26.122103 -0.948769 55.730198 -12.580651 -9.991186 8.593420 -9.723032 -9.954033 35.510478
-328.201823 101.765316 -15.181210 -23.922099 35.577943 -133.138596 -10.321357 33.455520 52.311247 25.830812 18.921454 -13.544562 -61.501482 28.826977 16.162099 6.533143 -12.933189 -43.192747 16.421264 35.072861 139.556693 38.707065 -32.913596 -134.695470 -24.483197 12.721142 17.036746 38.216920 79.533311 -38.394870 248.971597 90.428604 -217.776156 -34.404209 115.648353 -25.525189 -59.215875 -41.375479 -75.663046 82.725052 -32.693991 51.396552 39.538964 182.385326 311.048673 30.655638 239.235708 107.652654 -26.825423 -32.055485 42.480389 39.860714 22.456380 -46.655052 -27.433928 -1.244769 54.681350 -11.263776 -8.256354 8.626118 -9.716415 -9.780607 35.365343
-329.514232 102.248524 -14.506722 -24.327225 36.558021 -132.733757 -9.361590 34.090953 52.776134 25.698394 18.648418 -14.100605 -61.523393 29.586272 16.277570 6.545575 -12.924489 -43.097155 16.582318 35.780984 140.425657 40.062604 -31.646923 -132.363998 -23.783740 14.546922 16.426750 37.778172 80.448482 -38.673812 249.909573 86.243795 -216.063540 -34.872815 116.247320 -24.487072 -59.040906 -41.458009 -73.385970 77.375955 -29.501626 48.501604 38.530398 177.453328 307.146722 29.176820 241.986854 107.520954 -26.652064 -32.713563 41.720325 41.090732 23.708498 -45.453386 -28.061819 -1.802985 53.647974 -10.039649 -6.627223 8.372092 -9.656586 -9.848933 34.968154
-330.722728 102.586430 -13.866600 -25.077670 38.278631 -133.841518 -8.838733 34.813676 53.899475 25.693626 19.226078 -14.523953 -61.668712 30.057439 16.357919 6.385802 -13.153339 -42.906927 18.193800 34.353700 139.854311 42.048301 -28.655905 -132.057159 -22.698575 15.441299 15.744274 33.766802 83.788833 -39.978511 -110.146274 81.192535 -213.082258 -36.769832 116.211857 -25.134234 -57.993688 -42.279957 -70.338804 74.268465 -24.109326 44.939496 41.422341 170.681687 306.268114 29.525347 242.125944 109.616121 -25.942173 -32.055184 45.412565 42.062357 26.672672 -44.251095 -28.951078 -2.400258 53.148075 -8.823336 -5.755801 8.340542 -9.715994 -9.997230 34.565361
-332.104106 102.913636 -13.249860 -24.119018 38.515891 -133.441119 -7.158875 33.656467 54.053110 26.849634 18.711786 -15.231897 -61.837049 31.344735 16.661060 6.276335 -13.214641 -42.600593 17.838506 35.084264 141.558061 40.146817 -25.890505 -130.863583 -21.218008 16.910855 14.914726 31.688967 83.362602 -41.749285 -109.035794 74.349532 -210.702457 -36.215698 115.154817 -23.786709 -56.412694 -43.491434 -67.265889 67.495943 -19.925205 41.752632 41.787302 165.180953 302.179672 27.721679 242.086220 107.257937 -26.386636 -33.559837 45.969212 43.249694 28.725791 -42.873576 -27.413468 -5.741205 52.009551 -7.104838 -6.878895 7.203198 -9.483015 -11.028775 32.864285
-333.744120 103.286923 -12.784265 -23.719335 37.708904 -133.562833 -6.682891 31.882889 54.424610 27.974054 18.659875 -16.083980 -62.151026 32.845130 16.867301 6.215849 -13.224465 -42.214735 18.292529 35.732548 142.892803 36.897980 -22.484605 -130.822916 -18.529904 18.856515 13.765298 28.220719 83.238518 -43.818242 -111.052333 67.877204 -208.204506 -37.960713 113.339333 -25.287908 -56.230625 -43.624835 -67.432163 59.476065 -15.872011 37.085339 44.142707 157.283848 298.534728 25.301848 239.112929 100.130484 -26.343066 -34.701261 39.528425 42.785657 29.297905 -42.078313 -27.762398 -7.138690 51.778660 -5.642514 -6.122538 7.019671 -9.469558 -11.419289 31.494156
